<?xml version="1.0" standalone="no"?>
<!DOCTYPE svg PUBLIC "-//W3C//DTD SVG 20010904//EN"
 "http://www.w3.org/TR/2001/REC-SVG-20010904/DTD/svg10.dtd">
<svg version="1.0" xmlns="http://www.w3.org/2000/svg"
 width="530.000000pt" height="326.000000pt" viewBox="0 0 530.000000 326.000000"
 preserveAspectRatio="xMidYMid meet">
<metadata>
Created by potrace 1.16, written by Peter Selinger 2001-2019
</metadata>
<g transform="translate(0.000000,326.000000) scale(0.100000,-0.100000)"
fill="#000000" stroke="none">
<path d="M490 2385 l0 -185 185 0 185 0 0 185 0 185 -185 0 -185 0 0 -185z"/>
<path d="M1440 2385 l0 -185 185 0 185 0 0 185 0 185 -185 0 -185 0 0 -185z"/>
<path d="M2765 2556 c-38 -17 -80 -62 -94 -99 -32 -83 4 -194 75 -234 46 -27
136 -31 187 -9 126 52 140 244 24 330 -35 26 -147 33 -192 12z m157 -66 c36
-27 51 -72 45 -126 -9 -87 -93 -136 -169 -100 -46 22 -68 63 -68 126 0 46 4
56 34 86 30 30 41 34 84 34 34 0 57 -6 74 -20z"/>
<path d="M2290 2379 l0 -180 33 3 32 3 3 134 3 133 75 -118 c86 -135 104 -154
145 -154 l29 0 0 180 0 180 -30 0 -30 0 0 -132 0 -133 -86 133 -86 132 -44 0
-44 0 0 -181z"/>
<path d="M3080 2379 l0 -180 33 3 32 3 3 78 c3 73 4 78 24 75 15 -2 34 -26 62
-78 31 -55 48 -76 65 -78 51 -8 53 4 10 75 -23 37 -43 71 -46 76 -2 4 4 10 14
14 32 11 52 35 59 69 17 90 -28 124 -163 124 l-93 0 0 -181z"/>
<path d="M3350 2535 c0 -24 3 -25 55 -25 l55 0 0 -155 0 -155 30 0 29 0 3 153
3 152 58 3 c53 3 57 5 57 27 l0 25 -145 0 -145 0 0 -25z"/>
<path d="M3670 2380 l0 -180 30 0 30 0 0 80 0 80 85 0 85 0 0 -80 0 -80 30 0
30 0 0 180 0 180 -30 0 -30 0 0 -70 0 -70 -85 0 -85 0 0 70 0 70 -30 0 -30 0
0 -180z"/>
<path d="M1623 2093 l-183 -3 0 -180 0 -180 185 0 185 0 0 185 c0 102 -1 184
-2 183 -2 -2 -85 -4 -185 -5z"/>
<path d="M2665 2088 c-40 -14 -84 -56 -101 -95 -17 -38 -18 -121 -3 -160 52
-138 280 -144 346 -8 29 59 21 152 -19 208 -40 56 -145 82 -223 55z m134 -63
c59 -30 78 -126 38 -186 -30 -45 -63 -61 -115 -56 -111 11 -149 157 -61 231
35 30 93 35 138 11z"/>
<path d="M490 1910 l0 -180 185 0 185 0 0 180 0 180 -185 0 -185 0 0 -180z"/>
<path d="M970 1910 l0 -180 180 0 180 0 0 180 0 180 -180 0 -180 0 0 -180z"/>
<path d="M2250 2085 c0 -3 29 -49 65 -103 l65 -97 0 -77 0 -78 30 0 30 0 0 75
0 76 65 100 c36 55 65 102 65 104 0 3 -15 5 -34 5 -31 0 -37 -6 -78 -71 l-45
-71 -44 71 c-42 68 -45 71 -81 71 -21 0 -38 -2 -38 -5z"/>
<path d="M2970 1910 l1 -180 35 0 34 0 0 73 c0 41 3 76 6 79 16 17 45 -12 80
-78 38 -72 40 -74 77 -74 20 0 37 2 37 5 0 3 -20 37 -45 77 -43 70 -48 88 -20
88 21 0 55 50 55 81 0 82 -43 109 -175 109 l-85 0 0 -180z"/>
<path d="M3280 1910 l0 -180 35 0 35 0 0 88 1 87 32 -35 c17 -19 53 -59 78
-88 44 -51 48 -53 89 -50 l43 3 -88 94 -87 93 83 84 84 84 -45 0 c-42 0 -49
-4 -117 -72 l-73 -72 0 72 0 72 -35 0 -35 0 0 -180z"/>
<path d="M2397 1617 c-168 -54 -163 -309 7 -357 48 -13 118 -9 175 11 l31 11
0 94 0 94 -70 0 -70 0 0 -30 c0 -28 2 -30 40 -30 40 0 40 0 40 -40 0 -47 -18
-60 -82 -60 -78 1 -128 50 -128 128 0 104 91 161 186 116 32 -16 36 -15 54 1
27 24 25 32 -9 50 -41 21 -129 27 -174 12z"/>
<path d="M490 1435 l0 -185 185 0 185 0 0 185 0 185 -185 0 -185 0 0 -185z"/>
<path d="M1440 1435 l0 -185 185 0 185 0 0 185 0 185 -185 0 -185 0 0 -185z"/>
<path d="M2670 1440 l0 -180 125 0 125 0 0 30 0 30 -96 0 -95 0 3 48 3 47 83
3 c79 3 82 4 82 27 0 23 -3 24 -82 27 l-83 3 -3 43 -3 42 90 0 91 0 0 30 0 30
-120 0 -120 0 0 -180z"/>
<path d="M2970 1440 l0 -180 30 0 29 0 3 136 3 137 86 -134 c86 -134 86 -134
128 -137 l41 -3 0 180 0 181 -30 0 -29 0 -3 -132 -3 -132 -85 131 -85 132 -42
0 -43 1 0 -180z"/>
<path d="M3360 1440 l0 -180 120 0 120 0 0 30 0 30 -90 0 -90 0 0 50 0 50 85
0 c84 0 85 0 85 25 0 25 -1 25 -85 25 l-85 0 0 45 0 45 85 0 85 0 0 30 0 30
-115 0 -115 0 0 -180z"/>
<path d="M3660 1440 l0 -180 30 0 30 0 0 75 c0 73 1 75 24 75 20 0 32 -14 65
-75 l42 -75 73 0 73 0 13 40 13 40 82 0 82 0 13 -40 c12 -37 16 -40 51 -40
l38 0 -36 83 c-19 45 -54 126 -77 180 -39 93 -42 97 -70 95 -27 -3 -33 -13
-102 -172 -40 -93 -75 -171 -78 -173 -2 -3 -23 27 -46 66 -40 68 -44 91 -15
91 40 0 61 103 30 147 -20 29 -73 43 -162 43 l-73 0 0 -180z"/>
<path d="M4320 1440 l0 -180 110 0 110 0 0 30 0 30 -75 0 -75 0 0 150 0 150
-35 0 -35 0 0 -180z"/>
<path d="M4178 991 c8 -5 12 -21 10 -37 -3 -26 -6 -29 -35 -26 -65 7 -114 -98
-61 -132 14 -8 23 -7 40 3 16 10 23 10 26 2 2 -6 13 -11 25 -11 18 0 19 2 7
10 -13 8 -12 20 8 97 12 48 22 91 22 96 0 4 -12 7 -27 7 -19 0 -24 -3 -15 -9z"/>
<path d="M3521 980 c13 -7 19 -32 24 -100 4 -49 11 -90 15 -90 5 0 26 28 47
63 21 34 39 55 40 47 1 -8 5 -36 8 -62 3 -27 9 -48 13 -48 4 0 29 38 55 85 26
47 58 91 70 100 21 14 20 15 -18 15 -26 0 -35 -3 -27 -9 11 -7 9 -18 -11 -57
-14 -27 -32 -58 -41 -69 -15 -20 -15 -19 -16 6 0 14 -3 47 -6 72 -6 39 -4 46
12 50 11 3 0 5 -24 6 -39 1 -42 0 -28 -15 9 -8 16 -19 16 -24 0 -13 -62 -110
-71 -110 -4 0 -9 30 -11 66 -2 51 0 68 12 75 10 6 1 8 -30 8 -33 0 -41 -2 -29
-9z"/>
<path d="M3132 923 c-16 -6 -42 -56 -42 -82 0 -30 27 -52 56 -45 20 5 23 3 18
-12 -11 -30 -25 -44 -45 -44 -12 0 -19 7 -19 20 0 21 -15 27 -25 10 -11 -17
15 -40 45 -40 37 0 57 26 79 101 11 35 22 71 26 80 5 14 -1 16 -37 17 -24 0
-49 -2 -56 -5z"/>
<path d="M3051 681 c-7 -5 -21 -6 -31 -4 -19 5 -22 -10 -7 -34 12 -19 -1 -33
-28 -33 -32 0 -37 11 -20 44 11 20 11 27 2 24 -6 -2 -19 -18 -27 -35 -8 -18
-24 -34 -35 -36 -19 -4 -19 -4 1 -6 l22 -1 -20 -77 c-19 -76 -48 -130 -48 -90
0 9 -4 17 -10 17 -16 0 -12 -30 5 -37 23 -8 54 24 65 69 33 126 29 118 60 118
35 0 35 1 14 -87 -19 -83 -28 -102 -37 -78 -4 9 -11 13 -17 10 -15 -9 -12 -22
5 -29 37 -14 56 15 76 114 9 47 17 64 33 70 17 7 18 9 4 9 -24 1 -23 23 2 52
16 20 19 21 20 7 0 -24 19 -33 27 -13 10 27 -27 44 -56 26z"/>
</g>
</svg>
